# xmcd CD database file
#
# Track frame offsets:
#	150
#	22516
#	52285
#	82925
#	109158
#	138318
#	168740
#	194450
#	220565
#	245399
#	273784
#
# Disc length: 4056 seconds
#
# Revision: 1
# Processed by: cddbd v1.5.2PL0 Copyright (c) Steve Scherf et al.
# Submitted via: CDex 1.70beta2
#
DISCID=8f0fd60b
DTITLE=Vito Di Modugno - Organ Trio 2
DYEAR=2009
DGENRE=Jazz
TTITLE0=Bluesnik
TTITLE1=Evoli Park
TTITLE2=Appointment in Milano
TTITLE3=Broadway Blues
TTITLE4=Domneck
TTITLE5=Three View of a Secret
TTITLE6=Ana Maria
TTITLE7=Das' Dat
TTITLE8=Bolivia
TTITLE9=Short Story
TTITLE10=Ritha
EXTD=YEAR: 2009
EXTT0=
EXTT1=
EXTT2=
EXTT3=
EXTT4=
EXTT5=
EXTT6=
EXTT7=
EXTT8=
EXTT9=
EXTT10=
PLAYORDER=
